<mxfile host="app.diagrams.net" modified="2023-06-06T11:52:11.402Z" agent="Mozilla/5.0 (Windows NT 10.0; Win64; x64) AppleWebKit/537.36 (KHTML, like Gecko) Chrome/114.0.0.0 Safari/537.36" etag="wKm5ClsZSpxcI6Xg58fw" version="21.2.3" type="device">
  <diagram name="ER-Diagramm" id="Uk3lIwoTs9LjswLhSOUf">
    <mxGraphModel dx="525" dy="334" grid="1" gridSize="10" guides="1" tooltips="1" connect="1" arrows="1" fold="1" page="1" pageScale="1" pageWidth="827" pageHeight="1169" math="0" shadow="0">
      <root>
        <mxCell id="0" />
        <mxCell id="1" parent="0" />
        <mxCell id="YOQdJCn83vjHBdB2rXPN-2" style="edgeStyle=none;rounded=0;orthogonalLoop=1;jettySize=auto;html=1;endArrow=none;endFill=0;" edge="1" parent="1" source="YOQdJCn83vjHBdB2rXPN-4" target="YOQdJCn83vjHBdB2rXPN-32">
          <mxGeometry relative="1" as="geometry">
            <mxPoint x="780" y="470" as="targetPoint" />
          </mxGeometry>
        </mxCell>
        <mxCell id="YOQdJCn83vjHBdB2rXPN-3" value="1" style="edgeLabel;html=1;align=center;verticalAlign=middle;resizable=0;points=[];" vertex="1" connectable="0" parent="YOQdJCn83vjHBdB2rXPN-2">
          <mxGeometry x="-0.7315" y="2" relative="1" as="geometry">
            <mxPoint x="-52" y="8" as="offset" />
          </mxGeometry>
        </mxCell>
        <mxCell id="YOQdJCn83vjHBdB2rXPN-4" value="Vehicle" style="whiteSpace=wrap;html=1;align=center;" vertex="1" parent="1">
          <mxGeometry x="690" y="460" width="100" height="40" as="geometry" />
        </mxCell>
        <mxCell id="YOQdJCn83vjHBdB2rXPN-5" value="Flavor" style="whiteSpace=wrap;html=1;align=center;" vertex="1" parent="1">
          <mxGeometry x="1090" y="460" width="100" height="40" as="geometry" />
        </mxCell>
        <mxCell id="YOQdJCn83vjHBdB2rXPN-6" style="edgeStyle=none;rounded=0;orthogonalLoop=1;jettySize=auto;html=1;endArrow=none;endFill=0;" edge="1" parent="1" source="YOQdJCn83vjHBdB2rXPN-7" target="YOQdJCn83vjHBdB2rXPN-29">
          <mxGeometry relative="1" as="geometry" />
        </mxCell>
        <mxCell id="YOQdJCn83vjHBdB2rXPN-7" value="Icecream_Vendor" style="whiteSpace=wrap;html=1;align=center;" vertex="1" parent="1">
          <mxGeometry x="350" y="220" width="100" height="40" as="geometry" />
        </mxCell>
        <mxCell id="YOQdJCn83vjHBdB2rXPN-8" value="Neighborhood" style="whiteSpace=wrap;html=1;align=center;" vertex="1" parent="1">
          <mxGeometry x="350" y="730" width="100" height="40" as="geometry" />
        </mxCell>
        <mxCell id="YOQdJCn83vjHBdB2rXPN-9" value="&lt;u&gt;Neighborhood_ID&lt;/u&gt;" style="ellipse;whiteSpace=wrap;html=1;align=center;" vertex="1" parent="1">
          <mxGeometry x="220" y="730" width="100" height="40" as="geometry" />
        </mxCell>
        <mxCell id="YOQdJCn83vjHBdB2rXPN-10" value="Warehouse" style="whiteSpace=wrap;html=1;align=center;" vertex="1" parent="1">
          <mxGeometry x="1420" y="460" width="100" height="40" as="geometry" />
        </mxCell>
        <mxCell id="YOQdJCn83vjHBdB2rXPN-11" style="edgeStyle=none;rounded=0;orthogonalLoop=1;jettySize=auto;html=1;endArrow=none;endFill=0;" edge="1" parent="1" source="YOQdJCn83vjHBdB2rXPN-15" target="YOQdJCn83vjHBdB2rXPN-5">
          <mxGeometry relative="1" as="geometry" />
        </mxCell>
        <mxCell id="YOQdJCn83vjHBdB2rXPN-12" value="N" style="edgeLabel;html=1;align=center;verticalAlign=middle;resizable=0;points=[];" vertex="1" connectable="0" parent="YOQdJCn83vjHBdB2rXPN-11">
          <mxGeometry x="0.488" y="-1" relative="1" as="geometry">
            <mxPoint x="37" y="11" as="offset" />
          </mxGeometry>
        </mxCell>
        <mxCell id="YOQdJCn83vjHBdB2rXPN-13" style="edgeStyle=none;rounded=0;orthogonalLoop=1;jettySize=auto;html=1;endArrow=none;endFill=0;" edge="1" parent="1" source="YOQdJCn83vjHBdB2rXPN-15" target="YOQdJCn83vjHBdB2rXPN-10">
          <mxGeometry relative="1" as="geometry" />
        </mxCell>
        <mxCell id="YOQdJCn83vjHBdB2rXPN-14" value="M" style="edgeLabel;html=1;align=center;verticalAlign=middle;resizable=0;points=[];" vertex="1" connectable="0" parent="YOQdJCn83vjHBdB2rXPN-13">
          <mxGeometry x="0.5716" y="-1" relative="1" as="geometry">
            <mxPoint x="-47" y="9" as="offset" />
          </mxGeometry>
        </mxCell>
        <mxCell id="YOQdJCn83vjHBdB2rXPN-15" value="stores" style="shape=rhombus;perimeter=rhombusPerimeter;whiteSpace=wrap;html=1;align=center;" vertex="1" parent="1">
          <mxGeometry x="1240" y="450" width="120" height="60" as="geometry" />
        </mxCell>
        <mxCell id="YOQdJCn83vjHBdB2rXPN-16" style="edgeStyle=none;rounded=0;orthogonalLoop=1;jettySize=auto;html=1;endArrow=none;endFill=0;" edge="1" parent="1" source="YOQdJCn83vjHBdB2rXPN-4" target="YOQdJCn83vjHBdB2rXPN-34">
          <mxGeometry relative="1" as="geometry">
            <mxPoint x="893.8461538461538" y="370" as="sourcePoint" />
          </mxGeometry>
        </mxCell>
        <mxCell id="YOQdJCn83vjHBdB2rXPN-17" value="N" style="edgeLabel;html=1;align=center;verticalAlign=middle;resizable=0;points=[];" vertex="1" connectable="0" parent="YOQdJCn83vjHBdB2rXPN-16">
          <mxGeometry x="-0.5576" y="-1" relative="1" as="geometry">
            <mxPoint x="60" y="9" as="offset" />
          </mxGeometry>
        </mxCell>
        <mxCell id="YOQdJCn83vjHBdB2rXPN-18" style="edgeStyle=none;rounded=0;orthogonalLoop=1;jettySize=auto;html=1;endArrow=none;endFill=0;" edge="1" parent="1" source="YOQdJCn83vjHBdB2rXPN-34" target="YOQdJCn83vjHBdB2rXPN-5">
          <mxGeometry relative="1" as="geometry">
            <mxPoint x="1140" y="480" as="sourcePoint" />
          </mxGeometry>
        </mxCell>
        <mxCell id="YOQdJCn83vjHBdB2rXPN-19" value="M" style="edgeLabel;html=1;align=center;verticalAlign=middle;resizable=0;points=[];" vertex="1" connectable="0" parent="YOQdJCn83vjHBdB2rXPN-18">
          <mxGeometry x="0.5308" y="-1" relative="1" as="geometry">
            <mxPoint x="-58" y="9" as="offset" />
          </mxGeometry>
        </mxCell>
        <mxCell id="YOQdJCn83vjHBdB2rXPN-20" style="edgeStyle=none;rounded=0;orthogonalLoop=1;jettySize=auto;html=1;exitX=0.75;exitY=1;exitDx=0;exitDy=0;endArrow=none;endFill=0;" edge="1" parent="1">
          <mxGeometry relative="1" as="geometry">
            <mxPoint x="985" y="590" as="sourcePoint" />
            <mxPoint x="985" y="590" as="targetPoint" />
          </mxGeometry>
        </mxCell>
        <mxCell id="YOQdJCn83vjHBdB2rXPN-21" style="edgeStyle=none;rounded=0;orthogonalLoop=1;jettySize=auto;html=1;endArrow=none;endFill=0;" edge="1" parent="1">
          <mxGeometry relative="1" as="geometry">
            <mxPoint x="1060" y="490" as="sourcePoint" />
          </mxGeometry>
        </mxCell>
        <mxCell id="YOQdJCn83vjHBdB2rXPN-22" style="edgeStyle=none;rounded=0;orthogonalLoop=1;jettySize=auto;html=1;endArrow=none;endFill=0;" edge="1" parent="1" source="YOQdJCn83vjHBdB2rXPN-23" target="YOQdJCn83vjHBdB2rXPN-26">
          <mxGeometry relative="1" as="geometry">
            <mxPoint x="421.99291838256613" y="499.00354080871693" as="targetPoint" />
          </mxGeometry>
        </mxCell>
        <mxCell id="YOQdJCn83vjHBdB2rXPN-23" value="End_datetime" style="ellipse;whiteSpace=wrap;html=1;align=center;" vertex="1" parent="1">
          <mxGeometry x="210" y="480" width="100" height="40" as="geometry" />
        </mxCell>
        <mxCell id="YOQdJCn83vjHBdB2rXPN-24" style="edgeStyle=none;rounded=0;orthogonalLoop=1;jettySize=auto;html=1;endArrow=none;endFill=0;" edge="1" parent="1" source="YOQdJCn83vjHBdB2rXPN-25" target="YOQdJCn83vjHBdB2rXPN-26">
          <mxGeometry relative="1" as="geometry">
            <mxPoint x="372.4817361273515" y="496.24086806367575" as="targetPoint" />
          </mxGeometry>
        </mxCell>
        <mxCell id="YOQdJCn83vjHBdB2rXPN-25" value="Start_datetime" style="ellipse;whiteSpace=wrap;html=1;align=center;" vertex="1" parent="1">
          <mxGeometry x="210" y="430" width="100" height="40" as="geometry" />
        </mxCell>
        <mxCell id="YOQdJCn83vjHBdB2rXPN-26" value="Tour" style="whiteSpace=wrap;html=1;align=center;" vertex="1" parent="1">
          <mxGeometry x="350" y="460" width="100" height="40" as="geometry" />
        </mxCell>
        <mxCell id="YOQdJCn83vjHBdB2rXPN-27" style="edgeStyle=none;rounded=0;orthogonalLoop=1;jettySize=auto;html=1;endArrow=none;endFill=0;" edge="1" parent="1" source="YOQdJCn83vjHBdB2rXPN-28" target="YOQdJCn83vjHBdB2rXPN-7">
          <mxGeometry relative="1" as="geometry" />
        </mxCell>
        <mxCell id="YOQdJCn83vjHBdB2rXPN-28" value="FName" style="ellipse;whiteSpace=wrap;html=1;align=center;" vertex="1" parent="1">
          <mxGeometry x="280" y="170" width="100" height="40" as="geometry" />
        </mxCell>
        <mxCell id="YOQdJCn83vjHBdB2rXPN-29" value="LName" style="ellipse;whiteSpace=wrap;html=1;align=center;" vertex="1" parent="1">
          <mxGeometry x="430" y="170" width="100" height="40" as="geometry" />
        </mxCell>
        <mxCell id="YOQdJCn83vjHBdB2rXPN-30" value="sells on" style="shape=rhombus;perimeter=rhombusPerimeter;whiteSpace=wrap;html=1;align=center;" vertex="1" parent="1">
          <mxGeometry x="340" y="310" width="120" height="60" as="geometry" />
        </mxCell>
        <mxCell id="YOQdJCn83vjHBdB2rXPN-31" value="drives in" style="shape=rhombus;perimeter=rhombusPerimeter;whiteSpace=wrap;html=1;align=center;" vertex="1" parent="1">
          <mxGeometry x="340" y="600" width="120" height="60" as="geometry" />
        </mxCell>
        <mxCell id="YOQdJCn83vjHBdB2rXPN-32" value="is used for" style="shape=rhombus;perimeter=rhombusPerimeter;whiteSpace=wrap;html=1;align=center;" vertex="1" parent="1">
          <mxGeometry x="510" y="450" width="120" height="60" as="geometry" />
        </mxCell>
        <mxCell id="YOQdJCn83vjHBdB2rXPN-33" style="edgeStyle=none;rounded=0;orthogonalLoop=1;jettySize=auto;html=1;endArrow=none;endFill=0;" edge="1" parent="1" source="YOQdJCn83vjHBdB2rXPN-34" target="YOQdJCn83vjHBdB2rXPN-75">
          <mxGeometry relative="1" as="geometry">
            <mxPoint x="940" y="420" as="targetPoint" />
          </mxGeometry>
        </mxCell>
        <mxCell id="YOQdJCn83vjHBdB2rXPN-34" value="stores" style="shape=rhombus;perimeter=rhombusPerimeter;whiteSpace=wrap;html=1;align=center;" vertex="1" parent="1">
          <mxGeometry x="880" y="450" width="120" height="60" as="geometry" />
        </mxCell>
        <mxCell id="YOQdJCn83vjHBdB2rXPN-35" value="" style="edgeStyle=none;rounded=0;orthogonalLoop=1;jettySize=auto;html=1;endArrow=none;endFill=0;" edge="1" parent="1">
          <mxGeometry relative="1" as="geometry">
            <mxPoint x="1270" y="420" as="targetPoint" />
          </mxGeometry>
        </mxCell>
        <mxCell id="YOQdJCn83vjHBdB2rXPN-36" style="edgeStyle=none;rounded=0;orthogonalLoop=1;jettySize=auto;html=1;exitX=0.5;exitY=0;exitDx=0;exitDy=0;endArrow=none;endFill=0;" edge="1" parent="1" source="YOQdJCn83vjHBdB2rXPN-4" target="YOQdJCn83vjHBdB2rXPN-4">
          <mxGeometry relative="1" as="geometry" />
        </mxCell>
        <mxCell id="YOQdJCn83vjHBdB2rXPN-37" value="Order" style="whiteSpace=wrap;html=1;align=center;" vertex="1" parent="1">
          <mxGeometry x="760" y="630" width="100" height="40" as="geometry" />
        </mxCell>
        <mxCell id="YOQdJCn83vjHBdB2rXPN-38" style="edgeStyle=none;rounded=0;orthogonalLoop=1;jettySize=auto;html=1;endArrow=none;endFill=0;" edge="1" parent="1" target="YOQdJCn83vjHBdB2rXPN-5">
          <mxGeometry relative="1" as="geometry">
            <mxPoint x="1140" y="575" as="sourcePoint" />
          </mxGeometry>
        </mxCell>
        <mxCell id="YOQdJCn83vjHBdB2rXPN-39" value="1" style="edgeLabel;html=1;align=center;verticalAlign=middle;resizable=0;points=[];" vertex="1" connectable="0" parent="YOQdJCn83vjHBdB2rXPN-38">
          <mxGeometry x="0.412" y="-1" relative="1" as="geometry">
            <mxPoint x="-21" y="48" as="offset" />
          </mxGeometry>
        </mxCell>
        <mxCell id="YOQdJCn83vjHBdB2rXPN-40" style="edgeStyle=none;rounded=0;orthogonalLoop=1;jettySize=auto;html=1;endArrow=none;endFill=0;" edge="1" parent="1" source="YOQdJCn83vjHBdB2rXPN-61" target="YOQdJCn83vjHBdB2rXPN-84">
          <mxGeometry relative="1" as="geometry">
            <mxPoint x="1140" y="670" as="sourcePoint" />
            <mxPoint x="1140" y="750" as="targetPoint" />
          </mxGeometry>
        </mxCell>
        <mxCell id="YOQdJCn83vjHBdB2rXPN-41" value="has" style="shape=rhombus;perimeter=rhombusPerimeter;whiteSpace=wrap;html=1;align=center;" vertex="1" parent="1">
          <mxGeometry x="560" y="550" width="120" height="60" as="geometry" />
        </mxCell>
        <mxCell id="YOQdJCn83vjHBdB2rXPN-42" style="edgeStyle=none;rounded=0;orthogonalLoop=1;jettySize=auto;html=1;endArrow=none;endFill=0;" edge="1" parent="1" source="YOQdJCn83vjHBdB2rXPN-61" target="YOQdJCn83vjHBdB2rXPN-43">
          <mxGeometry relative="1" as="geometry">
            <mxPoint x="1270" y="688.4615384615386" as="targetPoint" />
            <mxPoint x="1190" y="667.5252734574874" as="sourcePoint" />
          </mxGeometry>
        </mxCell>
        <mxCell id="YOQdJCn83vjHBdB2rXPN-43" value="Discount" style="ellipse;whiteSpace=wrap;html=1;align=center;" vertex="1" parent="1">
          <mxGeometry x="1210" y="675" width="100" height="40" as="geometry" />
        </mxCell>
        <mxCell id="YOQdJCn83vjHBdB2rXPN-44" value="Order_datetime" style="ellipse;whiteSpace=wrap;html=1;align=center;" vertex="1" parent="1">
          <mxGeometry x="660" y="720" width="100" height="40" as="geometry" />
        </mxCell>
        <mxCell id="YOQdJCn83vjHBdB2rXPN-45" value="" style="edgeStyle=none;rounded=0;orthogonalLoop=1;jettySize=auto;html=1;endArrow=none;endFill=0;" edge="1" parent="1" source="YOQdJCn83vjHBdB2rXPN-37" target="YOQdJCn83vjHBdB2rXPN-44">
          <mxGeometry relative="1" as="geometry">
            <mxPoint x="732" y="732" as="targetPoint" />
            <mxPoint x="796" y="680" as="sourcePoint" />
          </mxGeometry>
        </mxCell>
        <mxCell id="YOQdJCn83vjHBdB2rXPN-46" value="Vendor_ID" style="ellipse;whiteSpace=wrap;html=1;align=center;fontStyle=4" vertex="1" parent="1">
          <mxGeometry x="220" y="220" width="100" height="40" as="geometry" />
        </mxCell>
        <mxCell id="YOQdJCn83vjHBdB2rXPN-47" style="edgeStyle=none;rounded=0;orthogonalLoop=1;jettySize=auto;html=1;endArrow=none;endFill=0;" edge="1" parent="1" source="YOQdJCn83vjHBdB2rXPN-46" target="YOQdJCn83vjHBdB2rXPN-7">
          <mxGeometry relative="1" as="geometry">
            <mxPoint x="239" y="234" as="sourcePoint" />
            <mxPoint x="360" y="245" as="targetPoint" />
          </mxGeometry>
        </mxCell>
        <mxCell id="YOQdJCn83vjHBdB2rXPN-48" value="Salary" style="ellipse;whiteSpace=wrap;html=1;align=center;" vertex="1" parent="1">
          <mxGeometry x="480" y="220" width="100" height="40" as="geometry" />
        </mxCell>
        <mxCell id="YOQdJCn83vjHBdB2rXPN-49" style="edgeStyle=none;rounded=0;orthogonalLoop=1;jettySize=auto;html=1;endArrow=none;endFill=0;" edge="1" parent="1" source="YOQdJCn83vjHBdB2rXPN-7" target="YOQdJCn83vjHBdB2rXPN-48">
          <mxGeometry relative="1" as="geometry">
            <mxPoint x="410" y="230" as="sourcePoint" />
            <mxPoint x="410" y="160" as="targetPoint" />
          </mxGeometry>
        </mxCell>
        <mxCell id="YOQdJCn83vjHBdB2rXPN-50" value="Tour_ID" style="ellipse;whiteSpace=wrap;html=1;align=center;fontStyle=4" vertex="1" parent="1">
          <mxGeometry x="240" y="375" width="100" height="40" as="geometry" />
        </mxCell>
        <mxCell id="YOQdJCn83vjHBdB2rXPN-51" style="edgeStyle=none;rounded=0;orthogonalLoop=1;jettySize=auto;html=1;endArrow=none;endFill=0;" edge="1" parent="1" source="YOQdJCn83vjHBdB2rXPN-50" target="YOQdJCn83vjHBdB2rXPN-26">
          <mxGeometry relative="1" as="geometry">
            <mxPoint x="360" y="509" as="targetPoint" />
            <mxPoint x="316" y="526" as="sourcePoint" />
          </mxGeometry>
        </mxCell>
        <mxCell id="YOQdJCn83vjHBdB2rXPN-52" style="edgeStyle=none;rounded=0;orthogonalLoop=1;jettySize=auto;html=1;endArrow=none;endFill=0;" edge="1" parent="1" source="YOQdJCn83vjHBdB2rXPN-9" target="YOQdJCn83vjHBdB2rXPN-8">
          <mxGeometry relative="1" as="geometry">
            <mxPoint x="390" y="510" as="targetPoint" />
            <mxPoint x="329" y="571" as="sourcePoint" />
          </mxGeometry>
        </mxCell>
        <mxCell id="YOQdJCn83vjHBdB2rXPN-53" value="Distance_HQ" style="ellipse;whiteSpace=wrap;html=1;align=center;" vertex="1" parent="1">
          <mxGeometry x="350" y="820" width="100" height="40" as="geometry" />
        </mxCell>
        <mxCell id="YOQdJCn83vjHBdB2rXPN-54" style="edgeStyle=none;rounded=0;orthogonalLoop=1;jettySize=auto;html=1;endArrow=none;endFill=0;" edge="1" parent="1" source="YOQdJCn83vjHBdB2rXPN-53" target="YOQdJCn83vjHBdB2rXPN-8">
          <mxGeometry relative="1" as="geometry">
            <mxPoint x="370" y="780" as="targetPoint" />
            <mxPoint x="321" y="804" as="sourcePoint" />
          </mxGeometry>
        </mxCell>
        <mxCell id="YOQdJCn83vjHBdB2rXPN-55" value="Name" style="ellipse;whiteSpace=wrap;html=1;align=center;" vertex="1" parent="1">
          <mxGeometry x="240" y="790" width="100" height="40" as="geometry" />
        </mxCell>
        <mxCell id="YOQdJCn83vjHBdB2rXPN-56" style="edgeStyle=none;rounded=0;orthogonalLoop=1;jettySize=auto;html=1;endArrow=none;endFill=0;" edge="1" parent="1" source="YOQdJCn83vjHBdB2rXPN-55" target="YOQdJCn83vjHBdB2rXPN-8">
          <mxGeometry relative="1" as="geometry">
            <mxPoint x="438" y="780" as="targetPoint" />
            <mxPoint x="496" y="822" as="sourcePoint" />
          </mxGeometry>
        </mxCell>
        <mxCell id="YOQdJCn83vjHBdB2rXPN-57" value="Area" style="ellipse;whiteSpace=wrap;html=1;align=center;" vertex="1" parent="1">
          <mxGeometry x="460" y="800" width="100" height="40" as="geometry" />
        </mxCell>
        <mxCell id="YOQdJCn83vjHBdB2rXPN-58" style="edgeStyle=none;rounded=0;orthogonalLoop=1;jettySize=auto;html=1;endArrow=none;endFill=0;" edge="1" parent="1" source="YOQdJCn83vjHBdB2rXPN-57" target="YOQdJCn83vjHBdB2rXPN-8">
          <mxGeometry relative="1" as="geometry">
            <mxPoint x="373" y="780" as="targetPoint" />
            <mxPoint x="329" y="804" as="sourcePoint" />
          </mxGeometry>
        </mxCell>
        <mxCell id="YOQdJCn83vjHBdB2rXPN-59" value="is made with" style="shape=rhombus;perimeter=rhombusPerimeter;whiteSpace=wrap;html=1;align=center;" vertex="1" parent="1">
          <mxGeometry x="1080" y="315" width="120" height="60" as="geometry" />
        </mxCell>
        <mxCell id="YOQdJCn83vjHBdB2rXPN-61" value="Order_Detail" style="shape=ext;margin=3;double=1;whiteSpace=wrap;html=1;align=center;" vertex="1" parent="1">
          <mxGeometry x="1090" y="675" width="100" height="40" as="geometry" />
        </mxCell>
        <mxCell id="YOQdJCn83vjHBdB2rXPN-62" value="" style="shape=link;html=1;rounded=0;" edge="1" parent="1" source="YOQdJCn83vjHBdB2rXPN-64" target="YOQdJCn83vjHBdB2rXPN-61">
          <mxGeometry relative="1" as="geometry">
            <mxPoint x="1040" y="650" as="sourcePoint" />
            <mxPoint x="1000" y="830" as="targetPoint" />
          </mxGeometry>
        </mxCell>
        <mxCell id="YOQdJCn83vjHBdB2rXPN-63" value="N" style="resizable=0;html=1;align=right;verticalAlign=bottom;" connectable="0" vertex="1" parent="YOQdJCn83vjHBdB2rXPN-62">
          <mxGeometry x="1" relative="1" as="geometry">
            <mxPoint x="-41" y="25" as="offset" />
          </mxGeometry>
        </mxCell>
        <mxCell id="YOQdJCn83vjHBdB2rXPN-64" value="has" style="shape=rhombus;double=1;perimeter=rhombusPerimeter;whiteSpace=wrap;html=1;align=center;" vertex="1" parent="1">
          <mxGeometry x="920" y="665" width="120" height="60" as="geometry" />
        </mxCell>
        <mxCell id="YOQdJCn83vjHBdB2rXPN-65" value="Order_ID" style="ellipse;whiteSpace=wrap;html=1;align=center;fontStyle=4" vertex="1" parent="1">
          <mxGeometry x="620" y="660" width="100" height="40" as="geometry" />
        </mxCell>
        <mxCell id="YOQdJCn83vjHBdB2rXPN-66" value="" style="edgeStyle=none;rounded=0;orthogonalLoop=1;jettySize=auto;html=1;endArrow=none;endFill=0;" edge="1" parent="1" source="YOQdJCn83vjHBdB2rXPN-37" target="YOQdJCn83vjHBdB2rXPN-65">
          <mxGeometry relative="1" as="geometry">
            <mxPoint x="768" y="780" as="targetPoint" />
            <mxPoint x="811" y="680" as="sourcePoint" />
          </mxGeometry>
        </mxCell>
        <mxCell id="YOQdJCn83vjHBdB2rXPN-67" value="Payment_Type" style="ellipse;whiteSpace=wrap;html=1;align=center;" vertex="1" parent="1">
          <mxGeometry x="740" y="755" width="100" height="40" as="geometry" />
        </mxCell>
        <mxCell id="YOQdJCn83vjHBdB2rXPN-68" value="" style="edgeStyle=none;rounded=0;orthogonalLoop=1;jettySize=auto;html=1;endArrow=none;endFill=0;" edge="1" parent="1" source="YOQdJCn83vjHBdB2rXPN-37" target="YOQdJCn83vjHBdB2rXPN-67">
          <mxGeometry relative="1" as="geometry">
            <mxPoint x="740" y="732" as="targetPoint" />
            <mxPoint x="798" y="680" as="sourcePoint" />
          </mxGeometry>
        </mxCell>
        <mxCell id="YOQdJCn83vjHBdB2rXPN-69" value="Vehicle_ID" style="ellipse;whiteSpace=wrap;html=1;align=center;fontStyle=4" vertex="1" parent="1">
          <mxGeometry x="600" y="410" width="100" height="40" as="geometry" />
        </mxCell>
        <mxCell id="YOQdJCn83vjHBdB2rXPN-70" value="" style="edgeStyle=none;rounded=0;orthogonalLoop=1;jettySize=auto;html=1;endArrow=none;endFill=0;" edge="1" parent="1" source="YOQdJCn83vjHBdB2rXPN-4" target="YOQdJCn83vjHBdB2rXPN-69">
          <mxGeometry relative="1" as="geometry">
            <mxPoint x="724" y="681" as="targetPoint" />
            <mxPoint x="770" y="671" as="sourcePoint" />
          </mxGeometry>
        </mxCell>
        <mxCell id="YOQdJCn83vjHBdB2rXPN-71" value="Type" style="ellipse;whiteSpace=wrap;html=1;align=center;" vertex="1" parent="1">
          <mxGeometry x="690" y="350" width="100" height="40" as="geometry" />
        </mxCell>
        <mxCell id="YOQdJCn83vjHBdB2rXPN-72" value="" style="edgeStyle=none;rounded=0;orthogonalLoop=1;jettySize=auto;html=1;endArrow=none;endFill=0;" edge="1" parent="1" source="YOQdJCn83vjHBdB2rXPN-4" target="YOQdJCn83vjHBdB2rXPN-71">
          <mxGeometry relative="1" as="geometry">
            <mxPoint x="681" y="436" as="targetPoint" />
            <mxPoint x="760" y="470" as="sourcePoint" />
          </mxGeometry>
        </mxCell>
        <mxCell id="YOQdJCn83vjHBdB2rXPN-73" value="Storage_Capacity" style="ellipse;whiteSpace=wrap;html=1;align=center;" vertex="1" parent="1">
          <mxGeometry x="780" y="410" width="100" height="40" as="geometry" />
        </mxCell>
        <mxCell id="YOQdJCn83vjHBdB2rXPN-74" value="" style="edgeStyle=none;rounded=0;orthogonalLoop=1;jettySize=auto;html=1;endArrow=none;endFill=0;" edge="1" parent="1" source="YOQdJCn83vjHBdB2rXPN-4" target="YOQdJCn83vjHBdB2rXPN-73">
          <mxGeometry relative="1" as="geometry">
            <mxPoint x="722" y="379" as="targetPoint" />
            <mxPoint x="778" y="470" as="sourcePoint" />
          </mxGeometry>
        </mxCell>
        <mxCell id="YOQdJCn83vjHBdB2rXPN-75" value="Amount" style="ellipse;whiteSpace=wrap;html=1;align=center;" vertex="1" parent="1">
          <mxGeometry x="890" y="530" width="100" height="40" as="geometry" />
        </mxCell>
        <mxCell id="YOQdJCn83vjHBdB2rXPN-76" value="Flavor_ID" style="ellipse;whiteSpace=wrap;html=1;align=center;fontStyle=4" vertex="1" parent="1">
          <mxGeometry x="1020" y="390" width="100" height="40" as="geometry" />
        </mxCell>
        <mxCell id="YOQdJCn83vjHBdB2rXPN-77" style="edgeStyle=none;rounded=0;orthogonalLoop=1;jettySize=auto;html=1;endArrow=none;endFill=0;" edge="1" parent="1" source="YOQdJCn83vjHBdB2rXPN-5" target="YOQdJCn83vjHBdB2rXPN-76">
          <mxGeometry relative="1" as="geometry">
            <mxPoint x="950" y="420" as="targetPoint" />
            <mxPoint x="950" y="460" as="sourcePoint" />
          </mxGeometry>
        </mxCell>
        <mxCell id="YOQdJCn83vjHBdB2rXPN-78" value="Name" style="ellipse;whiteSpace=wrap;html=1;align=center;" vertex="1" parent="1">
          <mxGeometry x="1160" y="390" width="100" height="40" as="geometry" />
        </mxCell>
        <mxCell id="YOQdJCn83vjHBdB2rXPN-79" style="edgeStyle=none;rounded=0;orthogonalLoop=1;jettySize=auto;html=1;endArrow=none;endFill=0;" edge="1" parent="1" source="YOQdJCn83vjHBdB2rXPN-5" target="YOQdJCn83vjHBdB2rXPN-78">
          <mxGeometry relative="1" as="geometry">
            <mxPoint x="1083" y="438" as="targetPoint" />
            <mxPoint x="1124" y="470" as="sourcePoint" />
          </mxGeometry>
        </mxCell>
        <mxCell id="YOQdJCn83vjHBdB2rXPN-80" value="Calories" style="ellipse;whiteSpace=wrap;html=1;align=center;" vertex="1" parent="1">
          <mxGeometry x="970" y="170" width="100" height="40" as="geometry" />
        </mxCell>
        <mxCell id="YOQdJCn83vjHBdB2rXPN-81" style="edgeStyle=none;rounded=0;orthogonalLoop=1;jettySize=auto;html=1;endArrow=none;endFill=0;" edge="1" parent="1" source="YOQdJCn83vjHBdB2rXPN-80" target="YOQdJCn83vjHBdB2rXPN-130">
          <mxGeometry relative="1" as="geometry">
            <mxPoint x="1079" y="268" as="sourcePoint" />
            <mxPoint x="1090" y="216.25" as="targetPoint" />
          </mxGeometry>
        </mxCell>
        <mxCell id="YOQdJCn83vjHBdB2rXPN-82" value="Basis" style="ellipse;whiteSpace=wrap;html=1;align=center;" vertex="1" parent="1">
          <mxGeometry x="1210" y="170" width="100" height="40" as="geometry" />
        </mxCell>
        <mxCell id="YOQdJCn83vjHBdB2rXPN-83" style="edgeStyle=none;rounded=0;orthogonalLoop=1;jettySize=auto;html=1;endArrow=none;endFill=0;" edge="1" parent="1" source="YOQdJCn83vjHBdB2rXPN-82">
          <mxGeometry relative="1" as="geometry">
            <mxPoint x="1075" y="229" as="sourcePoint" />
            <mxPoint x="1190" y="216.25" as="targetPoint" />
          </mxGeometry>
        </mxCell>
        <mxCell id="YOQdJCn83vjHBdB2rXPN-84" value="Amount" style="ellipse;whiteSpace=wrap;html=1;align=center;" vertex="1" parent="1">
          <mxGeometry x="1180" y="725" width="100" height="40" as="geometry" />
        </mxCell>
        <mxCell id="YOQdJCn83vjHBdB2rXPN-85" value="Amount" style="ellipse;whiteSpace=wrap;html=1;align=center;" vertex="1" parent="1">
          <mxGeometry x="1250" y="535" width="100" height="40" as="geometry" />
        </mxCell>
        <mxCell id="YOQdJCn83vjHBdB2rXPN-86" style="edgeStyle=none;rounded=0;orthogonalLoop=1;jettySize=auto;html=1;endArrow=none;endFill=0;" edge="1" parent="1" source="YOQdJCn83vjHBdB2rXPN-15" target="YOQdJCn83vjHBdB2rXPN-85">
          <mxGeometry relative="1" as="geometry">
            <mxPoint x="1500" y="420" as="targetPoint" />
            <mxPoint x="1313" y="461" as="sourcePoint" />
          </mxGeometry>
        </mxCell>
        <mxCell id="YOQdJCn83vjHBdB2rXPN-87" value="Warehouse_ID" style="ellipse;whiteSpace=wrap;html=1;align=center;fontStyle=4" vertex="1" parent="1">
          <mxGeometry x="1420" y="390" width="100" height="40" as="geometry" />
        </mxCell>
        <mxCell id="YOQdJCn83vjHBdB2rXPN-88" style="edgeStyle=none;rounded=0;orthogonalLoop=1;jettySize=auto;html=1;endArrow=none;endFill=0;" edge="1" parent="1" source="YOQdJCn83vjHBdB2rXPN-10" target="YOQdJCn83vjHBdB2rXPN-87">
          <mxGeometry relative="1" as="geometry">
            <mxPoint x="1333" y="430" as="targetPoint" />
            <mxPoint x="1319" y="465" as="sourcePoint" />
          </mxGeometry>
        </mxCell>
        <mxCell id="YOQdJCn83vjHBdB2rXPN-89" style="edgeStyle=none;rounded=0;orthogonalLoop=1;jettySize=auto;html=1;endArrow=none;endFill=0;" edge="1" parent="1" source="YOQdJCn83vjHBdB2rXPN-10">
          <mxGeometry relative="1" as="geometry">
            <mxPoint x="1560" y="480" as="targetPoint" />
            <mxPoint x="1485" y="470" as="sourcePoint" />
          </mxGeometry>
        </mxCell>
        <mxCell id="YOQdJCn83vjHBdB2rXPN-90" value="Capacity" style="ellipse;whiteSpace=wrap;html=1;align=center;" vertex="1" parent="1">
          <mxGeometry x="1420" y="530" width="100" height="40" as="geometry" />
        </mxCell>
        <mxCell id="YOQdJCn83vjHBdB2rXPN-91" style="edgeStyle=none;rounded=0;orthogonalLoop=1;jettySize=auto;html=1;endArrow=none;endFill=0;" edge="1" parent="1" source="YOQdJCn83vjHBdB2rXPN-90" target="YOQdJCn83vjHBdB2rXPN-10">
          <mxGeometry relative="1" as="geometry">
            <mxPoint x="1480" y="440" as="targetPoint" />
            <mxPoint x="1480" y="470" as="sourcePoint" />
          </mxGeometry>
        </mxCell>
        <mxCell id="YOQdJCn83vjHBdB2rXPN-92" value="Content_ID" style="ellipse;whiteSpace=wrap;html=1;align=center;fontStyle=4" vertex="1" parent="1">
          <mxGeometry x="970" y="255" width="100" height="40" as="geometry" />
        </mxCell>
        <mxCell id="YOQdJCn83vjHBdB2rXPN-93" style="edgeStyle=none;rounded=0;orthogonalLoop=1;jettySize=auto;html=1;endArrow=none;endFill=0;" edge="1" parent="1" source="YOQdJCn83vjHBdB2rXPN-92" target="YOQdJCn83vjHBdB2rXPN-130">
          <mxGeometry relative="1" as="geometry">
            <mxPoint x="1076" y="214" as="sourcePoint" />
            <mxPoint x="1090" y="251.66666666666663" as="targetPoint" />
          </mxGeometry>
        </mxCell>
        <mxCell id="YOQdJCn83vjHBdB2rXPN-94" value="" style="shape=link;html=1;rounded=0;" edge="1" parent="1" source="YOQdJCn83vjHBdB2rXPN-37" target="YOQdJCn83vjHBdB2rXPN-41">
          <mxGeometry relative="1" as="geometry">
            <mxPoint x="460" y="490" as="sourcePoint" />
            <mxPoint x="520" y="490" as="targetPoint" />
          </mxGeometry>
        </mxCell>
        <mxCell id="YOQdJCn83vjHBdB2rXPN-95" value="N" style="resizable=0;html=1;align=right;verticalAlign=bottom;" connectable="0" vertex="1" parent="YOQdJCn83vjHBdB2rXPN-94">
          <mxGeometry x="1" relative="1" as="geometry">
            <mxPoint x="-1" y="20" as="offset" />
          </mxGeometry>
        </mxCell>
        <mxCell id="YOQdJCn83vjHBdB2rXPN-96" style="edgeStyle=none;rounded=0;orthogonalLoop=1;jettySize=auto;html=1;endArrow=none;endFill=0;" edge="1" parent="1" source="YOQdJCn83vjHBdB2rXPN-97">
          <mxGeometry relative="1" as="geometry">
            <mxPoint x="1235.6494308797883" y="275.4670669106795" as="sourcePoint" />
            <mxPoint x="1190" y="251.66666666666663" as="targetPoint" />
          </mxGeometry>
        </mxCell>
        <mxCell id="YOQdJCn83vjHBdB2rXPN-97" value="isVegan" style="ellipse;whiteSpace=wrap;html=1;align=center;dashed=1;" vertex="1" parent="1">
          <mxGeometry x="1210" y="255" width="100" height="40" as="geometry" />
        </mxCell>
        <mxCell id="YOQdJCn83vjHBdB2rXPN-98" value="" style="endArrow=none;html=1;rounded=0;" edge="1" parent="1" source="YOQdJCn83vjHBdB2rXPN-7" target="YOQdJCn83vjHBdB2rXPN-30">
          <mxGeometry relative="1" as="geometry">
            <mxPoint x="450" y="690" as="sourcePoint" />
            <mxPoint x="610" y="690" as="targetPoint" />
          </mxGeometry>
        </mxCell>
        <mxCell id="YOQdJCn83vjHBdB2rXPN-99" value="1" style="resizable=0;html=1;align=right;verticalAlign=bottom;" connectable="0" vertex="1" parent="YOQdJCn83vjHBdB2rXPN-98">
          <mxGeometry x="1" relative="1" as="geometry">
            <mxPoint x="-10" y="-1" as="offset" />
          </mxGeometry>
        </mxCell>
        <mxCell id="YOQdJCn83vjHBdB2rXPN-100" value="" style="endArrow=none;html=1;rounded=0;" edge="1" parent="1" source="YOQdJCn83vjHBdB2rXPN-8" target="YOQdJCn83vjHBdB2rXPN-31">
          <mxGeometry relative="1" as="geometry">
            <mxPoint x="440" y="690" as="sourcePoint" />
            <mxPoint x="600" y="690" as="targetPoint" />
          </mxGeometry>
        </mxCell>
        <mxCell id="YOQdJCn83vjHBdB2rXPN-101" value="1" style="resizable=0;html=1;align=right;verticalAlign=bottom;" connectable="0" vertex="1" parent="YOQdJCn83vjHBdB2rXPN-100">
          <mxGeometry x="1" relative="1" as="geometry">
            <mxPoint x="-10" y="16" as="offset" />
          </mxGeometry>
        </mxCell>
        <mxCell id="YOQdJCn83vjHBdB2rXPN-102" value="" style="endArrow=none;html=1;rounded=0;" edge="1" parent="1" source="YOQdJCn83vjHBdB2rXPN-26" target="YOQdJCn83vjHBdB2rXPN-41">
          <mxGeometry relative="1" as="geometry">
            <mxPoint x="440" y="580" as="sourcePoint" />
            <mxPoint x="600" y="580" as="targetPoint" />
          </mxGeometry>
        </mxCell>
        <mxCell id="YOQdJCn83vjHBdB2rXPN-103" value="1" style="resizable=0;html=1;align=right;verticalAlign=bottom;" connectable="0" vertex="1" parent="YOQdJCn83vjHBdB2rXPN-102">
          <mxGeometry x="1" relative="1" as="geometry">
            <mxPoint x="-29" y="9" as="offset" />
          </mxGeometry>
        </mxCell>
        <mxCell id="YOQdJCn83vjHBdB2rXPN-104" value="" style="endArrow=none;html=1;rounded=0;" edge="1" parent="1" source="YOQdJCn83vjHBdB2rXPN-37" target="YOQdJCn83vjHBdB2rXPN-64">
          <mxGeometry relative="1" as="geometry">
            <mxPoint x="454" y="510" as="sourcePoint" />
            <mxPoint x="599" y="576" as="targetPoint" />
          </mxGeometry>
        </mxCell>
        <mxCell id="YOQdJCn83vjHBdB2rXPN-105" value="1" style="resizable=0;html=1;align=right;verticalAlign=bottom;" connectable="0" vertex="1" parent="YOQdJCn83vjHBdB2rXPN-104">
          <mxGeometry x="1" relative="1" as="geometry">
            <mxPoint x="-30" y="15" as="offset" />
          </mxGeometry>
        </mxCell>
        <mxCell id="YOQdJCn83vjHBdB2rXPN-106" value="" style="shape=link;html=1;rounded=0;" edge="1" parent="1" target="YOQdJCn83vjHBdB2rXPN-61">
          <mxGeometry relative="1" as="geometry">
            <mxPoint x="1140" y="635" as="sourcePoint" />
            <mxPoint x="1100" y="705" as="targetPoint" />
          </mxGeometry>
        </mxCell>
        <mxCell id="YOQdJCn83vjHBdB2rXPN-107" value="N" style="resizable=0;html=1;align=right;verticalAlign=bottom;" connectable="0" vertex="1" parent="YOQdJCn83vjHBdB2rXPN-106">
          <mxGeometry x="1" relative="1" as="geometry">
            <mxPoint x="-10" y="-25" as="offset" />
          </mxGeometry>
        </mxCell>
        <mxCell id="YOQdJCn83vjHBdB2rXPN-108" value="" style="shape=link;html=1;rounded=0;" edge="1" parent="1" target="YOQdJCn83vjHBdB2rXPN-59">
          <mxGeometry relative="1" as="geometry">
            <mxPoint x="1140" y="255" as="sourcePoint" />
            <mxPoint x="1410" y="350" as="targetPoint" />
          </mxGeometry>
        </mxCell>
        <mxCell id="YOQdJCn83vjHBdB2rXPN-109" value="1" style="resizable=0;html=1;align=right;verticalAlign=bottom;" connectable="0" vertex="1" parent="YOQdJCn83vjHBdB2rXPN-108">
          <mxGeometry x="1" relative="1" as="geometry">
            <mxPoint x="-5" as="offset" />
          </mxGeometry>
        </mxCell>
        <mxCell id="YOQdJCn83vjHBdB2rXPN-110" value="" style="endArrow=none;html=1;rounded=0;exitX=0.5;exitY=1;exitDx=0;exitDy=0;entryX=0.5;entryY=0;entryDx=0;entryDy=0;" edge="1" parent="1" source="YOQdJCn83vjHBdB2rXPN-26" target="YOQdJCn83vjHBdB2rXPN-31">
          <mxGeometry relative="1" as="geometry">
            <mxPoint x="415" y="544" as="sourcePoint" />
            <mxPoint x="560" y="610" as="targetPoint" />
          </mxGeometry>
        </mxCell>
        <mxCell id="YOQdJCn83vjHBdB2rXPN-111" value="N" style="resizable=0;html=1;align=right;verticalAlign=bottom;" connectable="0" vertex="1" parent="YOQdJCn83vjHBdB2rXPN-110">
          <mxGeometry x="1" relative="1" as="geometry">
            <mxPoint x="-10" as="offset" />
          </mxGeometry>
        </mxCell>
        <mxCell id="YOQdJCn83vjHBdB2rXPN-112" value="" style="endArrow=none;html=1;rounded=0;entryX=0.5;entryY=0;entryDx=0;entryDy=0;" edge="1" parent="1">
          <mxGeometry relative="1" as="geometry">
            <mxPoint x="400" y="370" as="sourcePoint" />
            <mxPoint x="399.86" y="460" as="targetPoint" />
          </mxGeometry>
        </mxCell>
        <mxCell id="YOQdJCn83vjHBdB2rXPN-113" value="N" style="resizable=0;html=1;align=right;verticalAlign=bottom;" connectable="0" vertex="1" parent="YOQdJCn83vjHBdB2rXPN-112">
          <mxGeometry x="1" relative="1" as="geometry">
            <mxPoint x="-10" y="-70" as="offset" />
          </mxGeometry>
        </mxCell>
        <mxCell id="YOQdJCn83vjHBdB2rXPN-114" value="" style="endArrow=none;html=1;rounded=0;exitX=0.5;exitY=1;exitDx=0;exitDy=0;entryX=0;entryY=0.5;entryDx=0;entryDy=0;" edge="1" parent="1" target="YOQdJCn83vjHBdB2rXPN-32">
          <mxGeometry relative="1" as="geometry">
            <mxPoint x="450" y="480" as="sourcePoint" />
            <mxPoint x="450" y="580" as="targetPoint" />
          </mxGeometry>
        </mxCell>
        <mxCell id="YOQdJCn83vjHBdB2rXPN-115" value="N" style="resizable=0;html=1;align=right;verticalAlign=bottom;" connectable="0" vertex="1" parent="YOQdJCn83vjHBdB2rXPN-114">
          <mxGeometry x="1" relative="1" as="geometry">
            <mxPoint x="-10" y="20" as="offset" />
          </mxGeometry>
        </mxCell>
        <mxCell id="YOQdJCn83vjHBdB2rXPN-116" value="Baseprice" style="ellipse;whiteSpace=wrap;html=1;align=center;" vertex="1" parent="1">
          <mxGeometry x="1030" y="520" width="100" height="40" as="geometry" />
        </mxCell>
        <mxCell id="YOQdJCn83vjHBdB2rXPN-117" style="edgeStyle=none;rounded=0;orthogonalLoop=1;jettySize=auto;html=1;endArrow=none;endFill=0;entryX=0.5;entryY=0;entryDx=0;entryDy=0;exitX=0.25;exitY=1;exitDx=0;exitDy=0;" edge="1" parent="1" source="YOQdJCn83vjHBdB2rXPN-5" target="YOQdJCn83vjHBdB2rXPN-116">
          <mxGeometry relative="1" as="geometry">
            <mxPoint x="1201" y="439" as="targetPoint" />
            <mxPoint x="1170" y="470" as="sourcePoint" />
          </mxGeometry>
        </mxCell>
        <mxCell id="YOQdJCn83vjHBdB2rXPN-118" value="has" style="shape=rhombus;double=1;perimeter=rhombusPerimeter;whiteSpace=wrap;html=1;align=center;" vertex="1" parent="1">
          <mxGeometry x="1080" y="575" width="120" height="60" as="geometry" />
        </mxCell>
        <mxCell id="YOQdJCn83vjHBdB2rXPN-119" value="Address" style="ellipse;whiteSpace=wrap;html=1;align=center;" vertex="1" parent="1">
          <mxGeometry x="1560" y="460" width="100" height="40" as="geometry" />
        </mxCell>
        <mxCell id="YOQdJCn83vjHBdB2rXPN-120" value="" style="edgeStyle=none;rounded=0;orthogonalLoop=1;jettySize=auto;html=1;endArrow=none;endFill=0;exitX=0.496;exitY=-0.06;exitDx=0;exitDy=0;exitPerimeter=0;" edge="1" parent="1" source="YOQdJCn83vjHBdB2rXPN-5">
          <mxGeometry relative="1" as="geometry">
            <mxPoint x="1139.8" y="375" as="targetPoint" />
            <mxPoint x="1139.8" y="445" as="sourcePoint" />
          </mxGeometry>
        </mxCell>
        <mxCell id="YOQdJCn83vjHBdB2rXPN-121" value="Street Number" style="ellipse;whiteSpace=wrap;html=1;align=center;" vertex="1" parent="1">
          <mxGeometry x="1560" y="390" width="100" height="40" as="geometry" />
        </mxCell>
        <mxCell id="YOQdJCn83vjHBdB2rXPN-122" value="Street" style="ellipse;whiteSpace=wrap;html=1;align=center;" vertex="1" parent="1">
          <mxGeometry x="1680" y="430" width="100" height="40" as="geometry" />
        </mxCell>
        <mxCell id="YOQdJCn83vjHBdB2rXPN-123" value="Zipcode" style="ellipse;whiteSpace=wrap;html=1;align=center;" vertex="1" parent="1">
          <mxGeometry x="1560" y="530" width="100" height="40" as="geometry" />
        </mxCell>
        <mxCell id="YOQdJCn83vjHBdB2rXPN-124" value="City" style="ellipse;whiteSpace=wrap;html=1;align=center;" vertex="1" parent="1">
          <mxGeometry x="1680" y="495" width="100" height="40" as="geometry" />
        </mxCell>
        <mxCell id="YOQdJCn83vjHBdB2rXPN-125" style="edgeStyle=none;rounded=0;orthogonalLoop=1;jettySize=auto;html=1;endArrow=none;endFill=0;entryX=0.5;entryY=1;entryDx=0;entryDy=0;exitX=0.5;exitY=0;exitDx=0;exitDy=0;" edge="1" parent="1" source="YOQdJCn83vjHBdB2rXPN-123" target="YOQdJCn83vjHBdB2rXPN-119">
          <mxGeometry relative="1" as="geometry">
            <mxPoint x="1480" y="510" as="targetPoint" />
            <mxPoint x="1480" y="540" as="sourcePoint" />
          </mxGeometry>
        </mxCell>
        <mxCell id="YOQdJCn83vjHBdB2rXPN-126" style="edgeStyle=none;rounded=0;orthogonalLoop=1;jettySize=auto;html=1;endArrow=none;endFill=0;entryX=1;entryY=1;entryDx=0;entryDy=0;exitX=0;exitY=0.5;exitDx=0;exitDy=0;" edge="1" parent="1" source="YOQdJCn83vjHBdB2rXPN-124" target="YOQdJCn83vjHBdB2rXPN-119">
          <mxGeometry relative="1" as="geometry">
            <mxPoint x="1490" y="520" as="targetPoint" />
            <mxPoint x="1490" y="550" as="sourcePoint" />
          </mxGeometry>
        </mxCell>
        <mxCell id="YOQdJCn83vjHBdB2rXPN-127" style="edgeStyle=none;rounded=0;orthogonalLoop=1;jettySize=auto;html=1;endArrow=none;endFill=0;entryX=0.5;entryY=0;entryDx=0;entryDy=0;exitX=0.5;exitY=1;exitDx=0;exitDy=0;" edge="1" parent="1" source="YOQdJCn83vjHBdB2rXPN-121" target="YOQdJCn83vjHBdB2rXPN-119">
          <mxGeometry relative="1" as="geometry">
            <mxPoint x="1500" y="530" as="targetPoint" />
            <mxPoint x="1500" y="560" as="sourcePoint" />
          </mxGeometry>
        </mxCell>
        <mxCell id="YOQdJCn83vjHBdB2rXPN-128" style="edgeStyle=none;rounded=0;orthogonalLoop=1;jettySize=auto;html=1;endArrow=none;endFill=0;entryX=1;entryY=0;entryDx=0;entryDy=0;exitX=0;exitY=0.5;exitDx=0;exitDy=0;" edge="1" parent="1" source="YOQdJCn83vjHBdB2rXPN-122" target="YOQdJCn83vjHBdB2rXPN-119">
          <mxGeometry relative="1" as="geometry">
            <mxPoint x="1510" y="540" as="targetPoint" />
            <mxPoint x="1510" y="570" as="sourcePoint" />
          </mxGeometry>
        </mxCell>
        <mxCell id="YOQdJCn83vjHBdB2rXPN-129" value="1" style="resizable=0;html=1;align=right;verticalAlign=bottom;" connectable="0" vertex="1" parent="1">
          <mxGeometry x="1135" y="390" as="geometry" />
        </mxCell>
        <mxCell id="YOQdJCn83vjHBdB2rXPN-130" value="Content" style="whiteSpace=wrap;html=1;align=center;" vertex="1" parent="1">
          <mxGeometry x="1090" y="215" width="100" height="40" as="geometry" />
        </mxCell>
      </root>
    </mxGraphModel>
  </diagram>
</mxfile>
